<svg width="40" height="40" viewBox="0 0 40 40" fill="none" xmlns="http://www.w3.org/2000/svg">
<path d="M20 35C28.2843 35 35 28.2843 35 20C35 11.7157 28.2843 5 20 5C11.7157 5 5 11.7157 5 20C5 28.2843 11.7157 35 20 35Z" stroke="#6FD6BD" stroke-width="3.33333" stroke-miterlimit="10" stroke-linecap="round" stroke-linejoin="round"/>
<path d="M26.1785 17.8453C26.8294 17.1944 26.8294 16.1391 26.1785 15.4882C25.5276 14.8374 24.4724 14.8374 23.8215 15.4882L26.1785 17.8453ZM18.3333 23.3334L17.1548 24.5119C17.8057 25.1628 18.861 25.1628 19.5118 24.5119L18.3333 23.3334ZM16.1785 18.8216C15.5276 18.1707 14.4724 18.1707 13.8215 18.8216C13.1706 19.4724 13.1706 20.5277 13.8215 21.1786L16.1785 18.8216ZM23.8215 15.4882L17.1548 22.1549L19.5118 24.5119L26.1785 17.8453L23.8215 15.4882ZM19.5118 22.1549L16.1785 18.8216L13.8215 21.1786L17.1548 24.5119L19.5118 22.1549Z" fill="#6FD6BD"/>
</svg>
